<?xml version="1.0" encoding="UTF-8"?>
<svg id="_图层_2" data-name="图层_2" xmlns="http://www.w3.org/2000/svg" xmlns:xlink="http://www.w3.org/1999/xlink" viewBox="0 0 247.88 11.63">
  <defs>
    <style>
      .cls-1 {
        fill: #fff;
      }

      .cls-2 {
        fill: none;
      }

      .cls-3 {
        fill: #131e32;
      }

      .cls-4 {
        clip-path: url(#clippath);
      }
    </style>
    <clipPath id="clippath">
      <rect class="cls-2" width="247.88" height="11.63"/>
    </clipPath>
  </defs>
  <g id="Dimensions">
    <g class="cls-4">
      <g>
        <g id="_x3C_网格重复_x3E_">
          <g>
            <path class="cls-1" d="M-38.2,2.05c14.01-.08,28.02-.16,42.03-.23"/>
            <path class="cls-3" d="M-38.23-4.25c3.51,1.3,7.01,1.69,10.52,1.85,7.88.33,15.77-.2,23.64-.69,2.49.19,4.75-2.62,7.22-1.33.14.06.28.14.41.22.03,0,.06.06.08.45.04.41.07,1.32.09,1.74.04,1.25.11,3.08.11,4.33-.03,1.29-.05,3.13-.1,4.41-.01.21-.03,1.09-.12,1.11-.14.08-.27.16-.41.22-2.46,1.32-4.74-1.46-7.23-1.25-4.35-.21-8.79-.46-13.14-.57-7.11.03-14.13-.41-21,2.11,0,0-.07-12.6-.07-12.6h0Z"/>
          </g>
        </g>
        <g id="_x3C_网格重复_x3E_-2" data-name="_x3C_网格重复_x3E_">
          <g>
            <path class="cls-1" d="M-30.55,2.05c14.01-.08,28.02-.16,42.03-.23"/>
            <path class="cls-3" d="M-30.59-4.25c3.51,1.3,7.01,1.69,10.52,1.85,7.88.33,15.77-.2,23.64-.69,2.49.19,4.75-2.62,7.22-1.33.14.06.28.14.41.22.03,0,.06.06.08.45.04.41.07,1.32.09,1.74.04,1.25.11,3.08.11,4.33-.03,1.29-.05,3.13-.1,4.41-.01.21-.03,1.09-.12,1.11-.14.08-.27.16-.41.22-2.46,1.32-4.74-1.46-7.23-1.25-4.35-.21-8.79-.46-13.14-.57-7.11.03-14.13-.41-21,2.11,0,0-.07-12.6-.07-12.6h0Z"/>
          </g>
        </g>
        <g id="_x3C_网格重复_x3E_-3" data-name="_x3C_网格重复_x3E_">
          <g>
            <path class="cls-1" d="M-22.91,2.05c14.01-.08,28.02-.16,42.03-.23"/>
            <path class="cls-3" d="M-22.94-4.25c3.51,1.3,7.01,1.69,10.52,1.85,7.88.33,15.77-.2,23.64-.69,2.49.19,4.75-2.62,7.22-1.33.14.06.28.14.41.22.03,0,.06.06.08.45.04.41.07,1.32.09,1.74.04,1.25.11,3.08.11,4.33-.03,1.29-.05,3.13-.1,4.41-.01.21-.03,1.09-.12,1.11-.14.08-.27.16-.41.22-2.46,1.32-4.74-1.46-7.23-1.25-4.35-.21-8.79-.46-13.14-.57-7.11.03-14.13-.41-21,2.11,0,0-.07-12.6-.07-12.6h0Z"/>
          </g>
        </g>
        <g id="_x3C_网格重复_x3E_-4" data-name="_x3C_网格重复_x3E_">
          <g>
            <path class="cls-1" d="M-15.26,2.05c14.01-.08,28.02-.16,42.03-.23"/>
            <path class="cls-3" d="M-15.3-4.25c3.51,1.3,7.01,1.69,10.52,1.85,7.88.33,15.77-.2,23.64-.69,2.49.19,4.75-2.62,7.22-1.33.14.06.28.14.41.22.03,0,.06.06.08.45.04.41.07,1.32.09,1.74.04,1.25.11,3.08.11,4.33-.03,1.29-.05,3.13-.1,4.41-.01.21-.03,1.09-.12,1.11-.14.08-.27.16-.41.22-2.46,1.32-4.74-1.46-7.23-1.25-4.35-.21-8.79-.46-13.14-.57-7.11.03-14.13-.41-21,2.11,0,0-.07-12.6-.07-12.6h0Z"/>
          </g>
        </g>
        <g id="_x3C_网格重复_x3E_-5" data-name="_x3C_网格重复_x3E_">
          <g>
            <path class="cls-1" d="M-7.61,2.05c14.01-.08,28.02-.16,42.03-.23"/>
            <path class="cls-3" d="M-7.65-4.25C-4.14-2.96-.64-2.56,2.87-2.4c7.88.33,15.77-.2,23.64-.69,2.49.19,4.75-2.62,7.22-1.33.14.06.28.14.41.22.03,0,.06.06.08.45.04.41.07,1.32.09,1.74.04,1.25.11,3.08.11,4.33-.03,1.29-.05,3.13-.1,4.41-.01.21-.03,1.09-.12,1.11-.14.08-.27.16-.41.22-2.46,1.32-4.74-1.46-7.23-1.25-4.35-.21-8.79-.46-13.14-.57-7.11.03-14.13-.41-21,2.11,0,0-.07-12.6-.07-12.6h0Z"/>
          </g>
        </g>
        <g id="_x3C_网格重复_x3E_-6" data-name="_x3C_网格重复_x3E_">
          <g>
            <path class="cls-1" d="M.03,2.05c14.01-.08,28.02-.16,42.03-.23"/>
            <path class="cls-3" d="M0-4.25c3.51,1.3,7.01,1.69,10.52,1.85,7.88.33,15.77-.2,23.64-.69,2.49.19,4.75-2.62,7.22-1.33.14.06.28.14.41.22.03,0,.06.06.08.45.04.41.07,1.32.09,1.74.04,1.25.11,3.08.11,4.33-.03,1.29-.05,3.13-.1,4.41-.01.21-.03,1.09-.12,1.11-.14.08-.27.16-.41.22-2.46,1.32-4.74-1.46-7.23-1.25-4.35-.21-8.79-.46-13.14-.57-7.11.03-14.13-.41-21,2.11,0,0-.07-12.6-.07-12.6H0Z"/>
          </g>
        </g>
        <g id="_x3C_网格重复_x3E_-7" data-name="_x3C_网格重复_x3E_">
          <g>
            <path class="cls-1" d="M7.68,2.05c14.01-.08,28.02-.16,42.03-.23"/>
            <path class="cls-3" d="M7.64-4.25c3.51,1.3,7.01,1.69,10.52,1.85,7.88.33,15.77-.2,23.64-.69,2.49.19,4.75-2.62,7.22-1.33.14.06.28.14.41.22.03,0,.06.06.08.45.04.41.07,1.32.09,1.74.04,1.25.11,3.08.11,4.33-.03,1.29-.05,3.13-.1,4.41-.01.21-.03,1.09-.12,1.11-.14.08-.27.16-.41.22-2.46,1.32-4.74-1.46-7.23-1.25-4.35-.21-8.79-.46-13.14-.57-7.11.03-14.13-.41-21,2.11,0,0-.07-12.6-.07-12.6h0Z"/>
          </g>
        </g>
        <g id="_x3C_网格重复_x3E_-8" data-name="_x3C_网格重复_x3E_">
          <g>
            <path class="cls-1" d="M15.32,2.05c14.01-.08,28.02-.16,42.03-.23"/>
            <path class="cls-3" d="M15.29-4.25c3.51,1.3,7.01,1.69,10.52,1.85,7.88.33,15.77-.2,23.64-.69,2.49.19,4.75-2.62,7.22-1.33.14.06.28.14.41.22.03,0,.06.06.08.45.04.41.07,1.32.09,1.74.04,1.25.11,3.08.11,4.33-.03,1.29-.05,3.13-.1,4.41-.01.21-.03,1.09-.12,1.11-.14.08-.27.16-.41.22-2.46,1.32-4.74-1.46-7.23-1.25-4.35-.21-8.79-.46-13.14-.57-7.11.03-14.13-.41-21,2.11,0,0-.07-12.6-.07-12.6h0Z"/>
          </g>
        </g>
        <g id="_x3C_网格重复_x3E_-9" data-name="_x3C_网格重复_x3E_">
          <g>
            <path class="cls-1" d="M22.97,2.05c14.01-.08,28.02-.16,42.03-.23"/>
            <path class="cls-3" d="M22.93-4.25c3.51,1.3,7.01,1.69,10.52,1.85,7.88.33,15.77-.2,23.64-.69,2.49.19,4.75-2.62,7.22-1.33.14.06.28.14.41.22.03,0,.06.06.08.45.04.41.07,1.32.09,1.74.04,1.25.11,3.08.11,4.33-.03,1.29-.05,3.13-.1,4.41-.01.21-.03,1.09-.12,1.11-.14.08-.27.16-.41.22-2.46,1.32-4.74-1.46-7.23-1.25-4.35-.21-8.79-.46-13.14-.57-7.11.03-14.13-.41-21,2.11,0,0-.07-12.6-.07-12.6h0Z"/>
          </g>
        </g>
        <g id="_x3C_网格重复_x3E_-10" data-name="_x3C_网格重复_x3E_">
          <g>
            <path class="cls-1" d="M30.61,2.05c14.01-.08,28.02-.16,42.03-.23"/>
            <path class="cls-3" d="M30.58-4.25c3.51,1.3,7.01,1.69,10.52,1.85,7.88.33,15.77-.2,23.64-.69,2.49.19,4.75-2.62,7.22-1.33.14.06.28.14.41.22.03,0,.06.06.08.45.04.41.07,1.32.09,1.74.04,1.25.11,3.08.11,4.33-.03,1.29-.05,3.13-.1,4.41-.01.21-.03,1.09-.12,1.11-.14.08-.27.16-.41.22-2.46,1.32-4.74-1.46-7.23-1.25-4.35-.21-8.79-.46-13.14-.57-7.11.03-14.13-.41-21,2.11,0,0-.07-12.6-.07-12.6h0Z"/>
          </g>
        </g>
        <g id="_x3C_网格重复_x3E_-11" data-name="_x3C_网格重复_x3E_">
          <g>
            <path class="cls-1" d="M38.26,2.05c14.01-.08,28.02-.16,42.03-.23"/>
            <path class="cls-3" d="M38.23-4.25c3.51,1.3,7.01,1.69,10.52,1.85,7.88.33,15.77-.2,23.64-.69,2.49.19,4.75-2.62,7.22-1.33.14.06.28.14.41.22.03,0,.06.06.08.45.04.41.07,1.32.09,1.74.04,1.25.11,3.08.11,4.33-.03,1.29-.05,3.13-.1,4.41-.01.21-.03,1.09-.12,1.11-.14.08-.27.16-.41.22-2.46,1.32-4.74-1.46-7.23-1.25-4.35-.21-8.79-.46-13.14-.57-7.11.03-14.13-.41-21,2.11,0,0-.07-12.6-.07-12.6h0Z"/>
          </g>
        </g>
        <g id="_x3C_网格重复_x3E_-12" data-name="_x3C_网格重复_x3E_">
          <g>
            <path class="cls-1" d="M45.91,2.05c14.01-.08,28.02-.16,42.03-.23"/>
            <path class="cls-3" d="M45.87-4.25c3.51,1.3,7.01,1.69,10.52,1.85,7.88.33,15.77-.2,23.64-.69,2.49.19,4.75-2.62,7.22-1.33.14.06.28.14.41.22.03,0,.06.06.08.45.04.41.07,1.32.09,1.74.04,1.25.11,3.08.11,4.33-.03,1.29-.05,3.13-.1,4.41-.01.21-.03,1.09-.12,1.11-.14.08-.27.16-.41.22-2.46,1.32-4.74-1.46-7.23-1.25-4.35-.21-8.79-.46-13.14-.57-7.11.03-14.13-.41-21,2.11,0,0-.07-12.6-.07-12.6h0Z"/>
          </g>
        </g>
        <g id="_x3C_网格重复_x3E_-13" data-name="_x3C_网格重复_x3E_">
          <g>
            <path class="cls-1" d="M53.55,2.05c14.01-.08,28.02-.16,42.03-.23"/>
            <path class="cls-3" d="M53.52-4.25c3.51,1.3,7.01,1.69,10.52,1.85,7.88.33,15.77-.2,23.64-.69,2.49.19,4.75-2.62,7.22-1.33.14.06.28.14.41.22.03,0,.06.06.08.45.04.41.07,1.32.09,1.74.04,1.25.11,3.08.11,4.33-.03,1.29-.05,3.13-.1,4.41-.01.21-.03,1.09-.12,1.11-.14.08-.27.16-.41.22-2.46,1.32-4.74-1.46-7.23-1.25-4.35-.21-8.79-.46-13.14-.57-7.11.03-14.13-.41-21,2.11,0,0-.07-12.6-.07-12.6h0Z"/>
          </g>
        </g>
        <g id="_x3C_网格重复_x3E_-14" data-name="_x3C_网格重复_x3E_">
          <g>
            <path class="cls-1" d="M61.2,2.05c14.01-.08,28.02-.16,42.03-.23"/>
            <path class="cls-3" d="M61.16-4.25c3.51,1.3,7.01,1.69,10.52,1.85,7.88.33,15.77-.2,23.64-.69,2.49.19,4.75-2.62,7.22-1.33.14.06.28.14.41.22.03,0,.06.06.08.45.04.41.07,1.32.09,1.74.04,1.25.11,3.08.11,4.33-.03,1.29-.05,3.13-.1,4.41-.01.21-.03,1.09-.12,1.11-.14.08-.27.16-.41.22-2.46,1.32-4.74-1.46-7.23-1.25-4.35-.21-8.79-.46-13.14-.57-7.11.03-14.13-.41-21,2.11,0,0-.07-12.6-.07-12.6h0Z"/>
          </g>
        </g>
        <g id="_x3C_网格重复_x3E_-15" data-name="_x3C_网格重复_x3E_">
          <g>
            <path class="cls-1" d="M68.84,2.05c14.01-.08,28.02-.16,42.03-.23"/>
            <path class="cls-3" d="M68.81-4.25c3.51,1.3,7.01,1.69,10.52,1.85,7.88.33,15.77-.2,23.64-.69,2.49.19,4.75-2.62,7.22-1.33.14.06.28.14.41.22.03,0,.06.06.08.45.04.41.07,1.32.09,1.74.04,1.25.11,3.08.11,4.33-.03,1.29-.05,3.13-.1,4.41-.01.21-.03,1.09-.12,1.11-.14.08-.27.16-.41.22-2.46,1.32-4.74-1.46-7.23-1.25-4.35-.21-8.79-.46-13.14-.57-7.11.03-14.13-.41-21,2.11,0,0-.07-12.6-.07-12.6h0Z"/>
          </g>
        </g>
        <g id="_x3C_网格重复_x3E_-16" data-name="_x3C_网格重复_x3E_">
          <g>
            <path class="cls-1" d="M76.49,2.05c14.01-.08,28.02-.16,42.03-.23"/>
            <path class="cls-3" d="M76.46-4.25c3.51,1.3,7.01,1.69,10.52,1.85,7.88.33,15.77-.2,23.64-.69,2.49.19,4.75-2.62,7.22-1.33.14.06.28.14.41.22.03,0,.06.06.08.45.04.41.07,1.32.09,1.74.04,1.25.11,3.08.11,4.33-.03,1.29-.05,3.13-.1,4.41-.01.21-.03,1.09-.12,1.11-.14.08-.27.16-.41.22-2.46,1.32-4.74-1.46-7.23-1.25-4.35-.21-8.79-.46-13.14-.57-7.11.03-14.13-.41-21,2.11,0,0-.07-12.6-.07-12.6h0Z"/>
          </g>
        </g>
        <g id="_x3C_网格重复_x3E_-17" data-name="_x3C_网格重复_x3E_">
          <g>
            <path class="cls-1" d="M84.14,2.05c14.01-.08,28.02-.16,42.03-.23"/>
            <path class="cls-3" d="M84.1-4.25c3.51,1.3,7.01,1.69,10.52,1.85,7.88.33,15.77-.2,23.64-.69,2.49.19,4.75-2.62,7.22-1.33.14.06.28.14.41.22.03,0,.06.06.08.45.04.41.07,1.32.09,1.74.04,1.25.11,3.08.11,4.33-.03,1.29-.05,3.13-.1,4.41-.01.21-.03,1.09-.12,1.11-.14.08-.27.16-.41.22-2.46,1.32-4.74-1.46-7.23-1.25-4.35-.21-8.79-.46-13.14-.57-7.11.03-14.13-.41-21,2.11,0,0-.07-12.6-.07-12.6h0Z"/>
          </g>
        </g>
        <g id="_x3C_网格重复_x3E_-18" data-name="_x3C_网格重复_x3E_">
          <g>
            <path class="cls-1" d="M91.78,2.05c14.01-.08,28.02-.16,42.03-.23"/>
            <path class="cls-3" d="M91.75-4.25c3.51,1.3,7.01,1.69,10.52,1.85,7.88.33,15.77-.2,23.64-.69,2.49.19,4.75-2.62,7.22-1.33.14.06.28.14.41.22.03,0,.06.06.08.45.04.41.07,1.32.09,1.74.04,1.25.11,3.08.11,4.33-.03,1.29-.05,3.13-.1,4.41-.01.21-.03,1.09-.12,1.11-.14.08-.27.16-.41.22-2.46,1.32-4.74-1.46-7.23-1.25-4.35-.21-8.79-.46-13.14-.57-7.11.03-14.13-.41-21,2.11,0,0-.07-12.6-.07-12.6h0Z"/>
          </g>
        </g>
        <g id="_x3C_网格重复_x3E_-19" data-name="_x3C_网格重复_x3E_">
          <g>
            <path class="cls-1" d="M99.43,2.05c14.01-.08,28.02-.16,42.03-.23"/>
            <path class="cls-3" d="M99.39-4.25c3.51,1.3,7.01,1.69,10.52,1.85,7.88.33,15.77-.2,23.64-.69,2.49.19,4.75-2.62,7.22-1.33.14.06.28.14.41.22.03,0,.06.06.08.45.04.41.07,1.32.09,1.74.04,1.25.11,3.08.11,4.33-.03,1.29-.05,3.13-.1,4.41-.01.21-.03,1.09-.12,1.11-.14.08-.27.16-.41.22-2.46,1.32-4.74-1.46-7.23-1.25-4.35-.21-8.79-.46-13.14-.57-7.11.03-14.13-.41-21,2.11,0,0-.07-12.6-.07-12.6h0Z"/>
          </g>
        </g>
        <g id="_x3C_网格重复_x3E_-20" data-name="_x3C_网格重复_x3E_">
          <g>
            <path class="cls-1" d="M107.07,2.05c14.01-.08,28.02-.16,42.03-.23"/>
            <path class="cls-3" d="M107.04-4.25c3.51,1.3,7.01,1.69,10.52,1.85,7.88.33,15.77-.2,23.64-.69,2.49.19,4.75-2.62,7.22-1.33.14.06.28.14.41.22.03,0,.06.06.08.45.04.41.07,1.32.09,1.74.04,1.25.11,3.08.11,4.33-.03,1.29-.05,3.13-.1,4.41-.01.21-.03,1.09-.12,1.11-.14.08-.27.16-.41.22-2.46,1.32-4.74-1.46-7.23-1.25-4.35-.21-8.79-.46-13.14-.57-7.11.03-14.13-.41-21,2.11,0,0-.07-12.6-.07-12.6h0Z"/>
          </g>
        </g>
        <g id="_x3C_网格重复_x3E_-21" data-name="_x3C_网格重复_x3E_">
          <g>
            <path class="cls-1" d="M114.72,2.05c14.01-.08,28.02-.16,42.03-.23"/>
            <path class="cls-3" d="M114.68-4.25c3.51,1.3,7.01,1.69,10.52,1.85,7.88.33,15.77-.2,23.64-.69,2.49.19,4.75-2.62,7.22-1.33.14.06.28.14.41.22.03,0,.06.06.08.45.04.41.07,1.32.09,1.74.04,1.25.11,3.08.11,4.33-.03,1.29-.05,3.13-.1,4.41-.01.21-.03,1.09-.12,1.11-.14.08-.27.16-.41.22-2.46,1.32-4.74-1.46-7.23-1.25-4.35-.21-8.79-.46-13.14-.57-7.11.03-14.13-.41-21,2.11,0,0-.07-12.6-.07-12.6h0Z"/>
          </g>
        </g>
        <g id="_x3C_网格重复_x3E_-22" data-name="_x3C_网格重复_x3E_">
          <g>
            <path class="cls-1" d="M122.37,2.05c14.01-.08,28.02-.16,42.03-.23"/>
            <path class="cls-3" d="M122.33-4.25c3.51,1.3,7.01,1.69,10.52,1.85,7.88.33,15.77-.2,23.64-.69,2.49.19,4.75-2.62,7.22-1.33.14.06.28.14.41.22.03,0,.06.06.08.45.04.41.07,1.32.09,1.74.04,1.25.11,3.08.11,4.33-.03,1.29-.05,3.13-.1,4.41-.01.21-.03,1.09-.12,1.11-.14.08-.27.16-.41.22-2.46,1.32-4.74-1.46-7.23-1.25-4.35-.21-8.79-.46-13.14-.57-7.11.03-14.13-.41-21,2.11,0,0-.07-12.6-.07-12.6h0Z"/>
          </g>
        </g>
        <g id="_x3C_网格重复_x3E_-23" data-name="_x3C_网格重复_x3E_">
          <g>
            <path class="cls-1" d="M130.01,2.05c14.01-.08,28.02-.16,42.03-.23"/>
            <path class="cls-3" d="M129.98-4.25c3.51,1.3,7.01,1.69,10.52,1.85,7.88.33,15.77-.2,23.64-.69,2.49.19,4.75-2.62,7.22-1.33.14.06.28.14.41.22.03,0,.06.06.08.45.04.41.07,1.32.09,1.74.04,1.25.11,3.08.11,4.33-.03,1.29-.05,3.13-.1,4.41-.01.21-.03,1.09-.12,1.11-.14.08-.27.16-.41.22-2.46,1.32-4.74-1.46-7.23-1.25-4.35-.21-8.79-.46-13.14-.57-7.11.03-14.13-.41-21,2.11,0,0-.07-12.6-.07-12.6h0Z"/>
          </g>
        </g>
        <g id="_x3C_网格重复_x3E_-24" data-name="_x3C_网格重复_x3E_">
          <g>
            <path class="cls-1" d="M137.66,2.05c14.01-.08,28.02-.16,42.03-.23"/>
            <path class="cls-3" d="M137.62-4.25c3.51,1.3,7.01,1.69,10.52,1.85,7.88.33,15.77-.2,23.64-.69,2.49.19,4.75-2.62,7.22-1.33.14.06.28.14.41.22.03,0,.06.06.08.45.04.41.07,1.32.09,1.74.04,1.25.11,3.08.11,4.33-.03,1.29-.05,3.13-.1,4.41-.01.21-.03,1.09-.12,1.11-.14.08-.27.16-.41.22-2.46,1.32-4.74-1.46-7.23-1.25-4.35-.21-8.79-.46-13.14-.57-7.11.03-14.13-.41-21,2.11,0,0-.07-12.6-.07-12.6h0Z"/>
          </g>
        </g>
        <g id="_x3C_网格重复_x3E_-25" data-name="_x3C_网格重复_x3E_">
          <g>
            <path class="cls-1" d="M145.3,2.05c14.01-.08,28.02-.16,42.03-.23"/>
            <path class="cls-3" d="M145.27-4.25c3.51,1.3,7.01,1.69,10.52,1.85,7.88.33,15.77-.2,23.64-.69,2.49.19,4.75-2.62,7.22-1.33.14.06.28.14.41.22.03,0,.06.06.08.45.04.41.07,1.32.09,1.74.04,1.25.11,3.08.11,4.33-.03,1.29-.05,3.13-.1,4.41-.01.21-.03,1.09-.12,1.11-.14.08-.27.16-.41.22-2.46,1.32-4.74-1.46-7.23-1.25-4.35-.21-8.79-.46-13.14-.57-7.11.03-14.13-.41-21,2.11,0,0-.07-12.6-.07-12.6h0Z"/>
          </g>
        </g>
        <g id="_x3C_网格重复_x3E_-26" data-name="_x3C_网格重复_x3E_">
          <g>
            <path class="cls-1" d="M152.95,2.05c14.01-.08,28.02-.16,42.03-.23"/>
            <path class="cls-3" d="M152.91-4.25c3.51,1.3,7.01,1.69,10.52,1.85,7.88.33,15.77-.2,23.64-.69,2.49.19,4.75-2.62,7.22-1.33.14.06.28.14.41.22.03,0,.06.06.08.45.04.41.07,1.32.09,1.74.04,1.25.11,3.08.11,4.33-.03,1.29-.05,3.13-.1,4.41-.01.21-.03,1.09-.12,1.11-.14.08-.27.16-.41.22-2.46,1.32-4.74-1.46-7.23-1.25-4.35-.21-8.79-.46-13.14-.57-7.11.03-14.13-.41-21,2.11,0,0-.07-12.6-.07-12.6h0Z"/>
          </g>
        </g>
        <g id="_x3C_网格重复_x3E_-27" data-name="_x3C_网格重复_x3E_">
          <g>
            <path class="cls-1" d="M160.6,2.05c14.01-.08,28.02-.16,42.03-.23"/>
            <path class="cls-3" d="M160.56-4.25c3.51,1.3,7.01,1.69,10.52,1.85,7.88.33,15.77-.2,23.64-.69,2.49.19,4.75-2.62,7.22-1.33.14.06.28.14.41.22.03,0,.06.06.08.45.04.41.07,1.32.09,1.74.04,1.25.11,3.08.11,4.33-.03,1.29-.05,3.13-.1,4.41-.01.21-.03,1.09-.12,1.11-.14.08-.27.16-.41.22-2.46,1.32-4.74-1.46-7.23-1.25-4.35-.21-8.79-.46-13.14-.57-7.11.03-14.13-.41-21,2.11,0,0-.07-12.6-.07-12.6h0Z"/>
          </g>
        </g>
        <g id="_x3C_网格重复_x3E_-28" data-name="_x3C_网格重复_x3E_">
          <g>
            <path class="cls-1" d="M168.24,2.05c14.01-.08,28.02-.16,42.03-.23"/>
            <path class="cls-3" d="M168.21-4.25c3.51,1.3,7.01,1.69,10.52,1.85,7.88.33,15.77-.2,23.64-.69,2.49.19,4.75-2.62,7.22-1.33.14.06.28.14.41.22.03,0,.06.06.08.45.04.41.07,1.32.09,1.74.04,1.25.11,3.08.11,4.33-.03,1.29-.05,3.13-.1,4.41-.01.21-.03,1.09-.12,1.11-.14.08-.27.16-.41.22-2.46,1.32-4.74-1.46-7.23-1.25-4.35-.21-8.79-.46-13.14-.57-7.11.03-14.13-.41-21,2.11,0,0-.07-12.6-.07-12.6h0Z"/>
          </g>
        </g>
        <g id="_x3C_网格重复_x3E_-29" data-name="_x3C_网格重复_x3E_">
          <g>
            <path class="cls-1" d="M175.89,2.05c14.01-.08,28.02-.16,42.03-.23"/>
            <path class="cls-3" d="M175.85-4.25c3.51,1.3,7.01,1.69,10.52,1.85,7.88.33,15.77-.2,23.64-.69,2.49.19,4.75-2.62,7.22-1.33.14.06.28.14.41.22.03,0,.06.06.08.45.04.41.07,1.32.09,1.74.04,1.25.11,3.08.11,4.33-.03,1.29-.05,3.13-.1,4.41-.01.21-.03,1.09-.12,1.11-.14.08-.27.16-.41.22-2.46,1.32-4.74-1.46-7.23-1.25-4.35-.21-8.79-.46-13.14-.57-7.11.03-14.13-.41-21,2.11,0,0-.07-12.6-.07-12.6h0Z"/>
          </g>
        </g>
        <g id="_x3C_网格重复_x3E_-30" data-name="_x3C_网格重复_x3E_">
          <g>
            <path class="cls-1" d="M183.53,2.05c14.01-.08,28.02-.16,42.03-.23"/>
            <path class="cls-3" d="M183.5-4.25c3.51,1.3,7.01,1.69,10.52,1.85,7.88.33,15.77-.2,23.64-.69,2.49.19,4.75-2.62,7.22-1.33.14.06.28.14.41.22.03,0,.06.06.08.45.04.41.07,1.32.09,1.74.04,1.25.11,3.08.11,4.33-.03,1.29-.05,3.13-.1,4.41-.01.21-.03,1.09-.12,1.11-.14.08-.27.16-.41.22-2.46,1.32-4.74-1.46-7.23-1.25-4.35-.21-8.79-.46-13.14-.57-7.11.03-14.13-.41-21,2.11,0,0-.07-12.6-.07-12.6h0Z"/>
          </g>
        </g>
        <g id="_x3C_网格重复_x3E_-31" data-name="_x3C_网格重复_x3E_">
          <g>
            <path class="cls-1" d="M191.18,2.05c14.01-.08,28.02-.16,42.03-.23"/>
            <path class="cls-3" d="M191.14-4.25c3.51,1.3,7.01,1.69,10.52,1.85,7.88.33,15.77-.2,23.64-.69,2.49.19,4.75-2.62,7.22-1.33.14.06.28.14.41.22.03,0,.06.06.08.45.04.41.07,1.32.09,1.74.04,1.25.11,3.08.11,4.33-.03,1.29-.05,3.13-.1,4.41-.01.21-.03,1.09-.12,1.11-.14.08-.27.16-.41.22-2.46,1.32-4.74-1.46-7.23-1.25-4.35-.21-8.79-.46-13.14-.57-7.11.03-14.13-.41-21,2.11,0,0-.07-12.6-.07-12.6h0Z"/>
          </g>
        </g>
        <g id="_x3C_网格重复_x3E_-32" data-name="_x3C_网格重复_x3E_">
          <g>
            <path class="cls-1" d="M198.82,2.05c14.01-.08,28.02-.16,42.03-.23"/>
            <path class="cls-3" d="M198.79-4.25c3.51,1.3,7.01,1.69,10.52,1.85,7.88.33,15.77-.2,23.64-.69,2.49.19,4.75-2.62,7.22-1.33.14.06.28.14.41.22.03,0,.06.06.08.45.04.41.07,1.32.09,1.74.04,1.25.11,3.08.11,4.33-.03,1.29-.05,3.13-.1,4.41-.01.21-.03,1.09-.12,1.11-.14.08-.27.16-.41.22-2.46,1.32-4.74-1.46-7.23-1.25-4.35-.21-8.79-.46-13.14-.57-7.11.03-14.13-.41-21,2.11,0,0-.07-12.6-.07-12.6h0Z"/>
          </g>
        </g>
        <g id="_x3C_网格重复_x3E_-33" data-name="_x3C_网格重复_x3E_">
          <g>
            <path class="cls-1" d="M206.47,2.05c14.01-.08,28.02-.16,42.03-.23"/>
            <path class="cls-3" d="M206.44-4.25c3.51,1.3,7.01,1.69,10.52,1.85,7.88.33,15.77-.2,23.64-.69,2.49.19,4.75-2.62,7.22-1.33.14.06.28.14.41.22.03,0,.06.06.08.45.04.41.07,1.32.09,1.74.04,1.25.11,3.08.11,4.33-.03,1.29-.05,3.13-.1,4.41-.01.21-.03,1.09-.12,1.11-.14.08-.27.16-.41.22-2.46,1.32-4.74-1.46-7.23-1.25-4.35-.21-8.79-.46-13.14-.57-7.11.03-14.13-.41-21,2.11,0,0-.07-12.6-.07-12.6h0Z"/>
          </g>
        </g>
        <g id="_x3C_网格重复_x3E_-34" data-name="_x3C_网格重复_x3E_">
          <g>
            <path class="cls-1" d="M214.12,2.05c14.01-.08,28.02-.16,42.03-.23"/>
            <path class="cls-3" d="M214.08-4.25c3.51,1.3,7.01,1.69,10.52,1.85,7.88.33,15.77-.2,23.64-.69,2.49.19,4.75-2.62,7.22-1.33.14.06.28.14.41.22.03,0,.06.06.08.45.04.41.07,1.32.09,1.74.04,1.25.11,3.08.11,4.33-.03,1.29-.05,3.13-.1,4.41-.01.21-.03,1.09-.12,1.11-.14.08-.27.16-.41.22-2.46,1.32-4.74-1.46-7.23-1.25-4.35-.21-8.79-.46-13.14-.57-7.11.03-14.13-.41-21,2.11,0,0-.07-12.6-.07-12.6h0Z"/>
          </g>
        </g>
        <g id="_x3C_网格重复_x3E_-35" data-name="_x3C_网格重复_x3E_">
          <path class="cls-3" d="M-38.23,9.6c3.51,1.3,7.01,1.69,10.52,1.85,7.88.33,15.77-.2,23.64-.69,2.49.19,4.75-2.62,7.22-1.33.14.06.28.14.41.22.03,0,.06.06.08.45.04.41.07,1.32.09,1.74.04,1.25.11,3.08.11,4.33-.03,1.29-.05,3.13-.1,4.41-.01.21-.03,1.09-.12,1.11-.14.08-.27.16-.41.22-2.46,1.32-4.74-1.46-7.23-1.25-4.35-.21-8.79-.46-13.14-.57-7.11.03-14.13-.41-21,2.11,0,0-.07-12.6-.07-12.6h0Z"/>
        </g>
        <g id="_x3C_网格重复_x3E_-36" data-name="_x3C_网格重复_x3E_">
          <path class="cls-3" d="M-30.59,9.6c3.51,1.3,7.01,1.69,10.52,1.85,7.88.33,15.77-.2,23.64-.69,2.49.19,4.75-2.62,7.22-1.33.14.06.28.14.41.22.03,0,.06.06.08.45.04.41.07,1.32.09,1.74.04,1.25.11,3.08.11,4.33-.03,1.29-.05,3.13-.1,4.41-.01.21-.03,1.09-.12,1.11-.14.08-.27.16-.41.22-2.46,1.32-4.74-1.46-7.23-1.25-4.35-.21-8.79-.46-13.14-.57-7.11.03-14.13-.41-21,2.11,0,0-.07-12.6-.07-12.6h0Z"/>
        </g>
        <g id="_x3C_网格重复_x3E_-37" data-name="_x3C_网格重复_x3E_">
          <path class="cls-3" d="M-22.94,9.6c3.51,1.3,7.01,1.69,10.52,1.85,7.88.33,15.77-.2,23.64-.69,2.49.19,4.75-2.62,7.22-1.33.14.06.28.14.41.22.03,0,.06.06.08.45.04.41.07,1.32.09,1.74.04,1.25.11,3.08.11,4.33-.03,1.29-.05,3.13-.1,4.41-.01.21-.03,1.09-.12,1.11-.14.08-.27.16-.41.22-2.46,1.32-4.74-1.46-7.23-1.25-4.35-.21-8.79-.46-13.14-.57-7.11.03-14.13-.41-21,2.11,0,0-.07-12.6-.07-12.6h0Z"/>
        </g>
        <g id="_x3C_网格重复_x3E_-38" data-name="_x3C_网格重复_x3E_">
          <path class="cls-3" d="M-15.3,9.6c3.51,1.3,7.01,1.69,10.52,1.85,7.88.33,15.77-.2,23.64-.69,2.49.19,4.75-2.62,7.22-1.33.14.06.28.14.41.22.03,0,.06.06.08.45.04.41.07,1.32.09,1.74.04,1.25.11,3.08.11,4.33-.03,1.29-.05,3.13-.1,4.41-.01.21-.03,1.09-.12,1.11-.14.08-.27.16-.41.22-2.46,1.32-4.74-1.46-7.23-1.25-4.35-.21-8.79-.46-13.14-.57-7.11.03-14.13-.41-21,2.11,0,0-.07-12.6-.07-12.6h0Z"/>
        </g>
        <g id="_x3C_网格重复_x3E_-39" data-name="_x3C_网格重复_x3E_">
          <path class="cls-3" d="M-7.65,9.6c3.51,1.3,7.01,1.69,10.52,1.85,7.88.33,15.77-.2,23.64-.69,2.49.19,4.75-2.62,7.22-1.33.14.06.28.14.41.22.03,0,.06.06.08.45.04.41.07,1.32.09,1.74.04,1.25.11,3.08.11,4.33-.03,1.29-.05,3.13-.1,4.41-.01.21-.03,1.09-.12,1.11-.14.08-.27.16-.41.22-2.46,1.32-4.74-1.46-7.23-1.25-4.35-.21-8.79-.46-13.14-.57-7.11.03-14.13-.41-21,2.11,0,0-.07-12.6-.07-12.6h0Z"/>
        </g>
        <g id="_x3C_网格重复_x3E_-40" data-name="_x3C_网格重复_x3E_">
          <path class="cls-3" d="M0,9.6c3.51,1.3,7.01,1.69,10.52,1.85,7.88.33,15.77-.2,23.64-.69,2.49.19,4.75-2.62,7.22-1.33.14.06.28.14.41.22.03,0,.06.06.08.45.04.41.07,1.32.09,1.74.04,1.25.11,3.08.11,4.33-.03,1.29-.05,3.13-.1,4.41-.01.21-.03,1.09-.12,1.11-.14.08-.27.16-.41.22-2.46,1.32-4.74-1.46-7.23-1.25-4.35-.21-8.79-.46-13.14-.57-7.11.03-14.13-.41-21,2.11,0,0-.07-12.6-.07-12.6H0Z"/>
        </g>
        <g id="_x3C_网格重复_x3E_-41" data-name="_x3C_网格重复_x3E_">
          <path class="cls-3" d="M7.64,9.6c3.51,1.3,7.01,1.69,10.52,1.85,7.88.33,15.77-.2,23.64-.69,2.49.19,4.75-2.62,7.22-1.33.14.06.28.14.41.22.03,0,.06.06.08.45.04.41.07,1.32.09,1.74.04,1.25.11,3.08.11,4.33-.03,1.29-.05,3.13-.1,4.41-.01.21-.03,1.09-.12,1.11-.14.08-.27.16-.41.22-2.46,1.32-4.74-1.46-7.23-1.25-4.35-.21-8.79-.46-13.14-.57-7.11.03-14.13-.41-21,2.11,0,0-.07-12.6-.07-12.6h0Z"/>
        </g>
        <g id="_x3C_网格重复_x3E_-42" data-name="_x3C_网格重复_x3E_">
          <path class="cls-3" d="M15.29,9.6c3.51,1.3,7.01,1.69,10.52,1.85,7.88.33,15.77-.2,23.64-.69,2.49.19,4.75-2.62,7.22-1.33.14.06.28.14.41.22.03,0,.06.06.08.45.04.41.07,1.32.09,1.74.04,1.25.11,3.08.11,4.33-.03,1.29-.05,3.13-.1,4.41-.01.21-.03,1.09-.12,1.11-.14.08-.27.16-.41.22-2.46,1.32-4.74-1.46-7.23-1.25-4.35-.21-8.79-.46-13.14-.57-7.11.03-14.13-.41-21,2.11,0,0-.07-12.6-.07-12.6h0Z"/>
        </g>
        <g id="_x3C_网格重复_x3E_-43" data-name="_x3C_网格重复_x3E_">
          <path class="cls-3" d="M22.93,9.6c3.51,1.3,7.01,1.69,10.52,1.85,7.88.33,15.77-.2,23.64-.69,2.49.19,4.75-2.62,7.22-1.33.14.06.28.14.41.22.03,0,.06.06.08.45.04.41.07,1.32.09,1.74.04,1.25.11,3.08.11,4.33-.03,1.29-.05,3.13-.1,4.41-.01.21-.03,1.09-.12,1.11-.14.08-.27.16-.41.22-2.46,1.32-4.74-1.46-7.23-1.25-4.35-.21-8.79-.46-13.14-.57-7.11.03-14.13-.41-21,2.11,0,0-.07-12.6-.07-12.6h0Z"/>
        </g>
        <g id="_x3C_网格重复_x3E_-44" data-name="_x3C_网格重复_x3E_">
          <path class="cls-3" d="M30.58,9.6c3.51,1.3,7.01,1.69,10.52,1.85,7.88.33,15.77-.2,23.64-.69,2.49.19,4.75-2.62,7.22-1.33.14.06.28.14.41.22.03,0,.06.06.08.45.04.41.07,1.32.09,1.74.04,1.25.11,3.08.11,4.33-.03,1.29-.05,3.13-.1,4.41-.01.21-.03,1.09-.12,1.11-.14.08-.27.16-.41.22-2.46,1.32-4.74-1.46-7.23-1.25-4.35-.21-8.79-.46-13.14-.57-7.11.03-14.13-.41-21,2.11,0,0-.07-12.6-.07-12.6h0Z"/>
        </g>
        <g id="_x3C_网格重复_x3E_-45" data-name="_x3C_网格重复_x3E_">
          <path class="cls-3" d="M38.23,9.6c3.51,1.3,7.01,1.69,10.52,1.85,7.88.33,15.77-.2,23.64-.69,2.49.19,4.75-2.62,7.22-1.33.14.06.28.14.41.22.03,0,.06.06.08.45.04.41.07,1.32.09,1.74.04,1.25.11,3.08.11,4.33-.03,1.29-.05,3.13-.1,4.41-.01.21-.03,1.09-.12,1.11-.14.08-.27.16-.41.22-2.46,1.32-4.74-1.46-7.23-1.25-4.35-.21-8.79-.46-13.14-.57-7.11.03-14.13-.41-21,2.11,0,0-.07-12.6-.07-12.6h0Z"/>
        </g>
        <g id="_x3C_网格重复_x3E_-46" data-name="_x3C_网格重复_x3E_">
          <path class="cls-3" d="M45.87,9.6c3.51,1.3,7.01,1.69,10.52,1.85,7.88.33,15.77-.2,23.64-.69,2.49.19,4.75-2.62,7.22-1.33.14.06.28.14.41.22.03,0,.06.06.08.45.04.41.07,1.32.09,1.74.04,1.25.11,3.08.11,4.33-.03,1.29-.05,3.13-.1,4.41-.01.21-.03,1.09-.12,1.11-.14.08-.27.16-.41.22-2.46,1.32-4.74-1.46-7.23-1.25-4.35-.21-8.79-.46-13.14-.57-7.11.03-14.13-.41-21,2.11,0,0-.07-12.6-.07-12.6h0Z"/>
        </g>
        <g id="_x3C_网格重复_x3E_-47" data-name="_x3C_网格重复_x3E_">
          <path class="cls-3" d="M53.52,9.6c3.51,1.3,7.01,1.69,10.52,1.85,7.88.33,15.77-.2,23.64-.69,2.49.19,4.75-2.62,7.22-1.33.14.06.28.14.41.22.03,0,.06.06.08.45.04.41.07,1.32.09,1.74.04,1.25.11,3.08.11,4.33-.03,1.29-.05,3.13-.1,4.41-.01.21-.03,1.09-.12,1.11-.14.08-.27.16-.41.22-2.46,1.32-4.74-1.46-7.23-1.25-4.35-.21-8.79-.46-13.14-.57-7.11.03-14.13-.41-21,2.11,0,0-.07-12.6-.07-12.6h0Z"/>
        </g>
        <g id="_x3C_网格重复_x3E_-48" data-name="_x3C_网格重复_x3E_">
          <path class="cls-3" d="M61.16,9.6c3.51,1.3,7.01,1.69,10.52,1.85,7.88.33,15.77-.2,23.64-.69,2.49.19,4.75-2.62,7.22-1.33.14.06.28.14.41.22.03,0,.06.06.08.45.04.41.07,1.32.09,1.74.04,1.25.11,3.08.11,4.33-.03,1.29-.05,3.13-.1,4.41-.01.21-.03,1.09-.12,1.11-.14.08-.27.16-.41.22-2.46,1.32-4.74-1.46-7.23-1.25-4.35-.21-8.79-.46-13.14-.57-7.11.03-14.13-.41-21,2.11,0,0-.07-12.6-.07-12.6h0Z"/>
        </g>
        <g id="_x3C_网格重复_x3E_-49" data-name="_x3C_网格重复_x3E_">
          <path class="cls-3" d="M68.81,9.6c3.51,1.3,7.01,1.69,10.52,1.85,7.88.33,15.77-.2,23.64-.69,2.49.19,4.75-2.62,7.22-1.33.14.06.28.14.41.22.03,0,.06.06.08.45.04.41.07,1.32.09,1.74.04,1.25.11,3.08.11,4.33-.03,1.29-.05,3.13-.1,4.41-.01.21-.03,1.09-.12,1.11-.14.08-.27.16-.41.22-2.46,1.32-4.74-1.46-7.23-1.25-4.35-.21-8.79-.46-13.14-.57-7.11.03-14.13-.41-21,2.11,0,0-.07-12.6-.07-12.6h0Z"/>
        </g>
        <g id="_x3C_网格重复_x3E_-50" data-name="_x3C_网格重复_x3E_">
          <path class="cls-3" d="M76.46,9.6c3.51,1.3,7.01,1.69,10.52,1.85,7.88.33,15.77-.2,23.64-.69,2.49.19,4.75-2.62,7.22-1.33.14.06.28.14.41.22.03,0,.06.06.08.45.04.41.07,1.32.09,1.74.04,1.25.11,3.08.11,4.33-.03,1.29-.05,3.13-.1,4.41-.01.21-.03,1.09-.12,1.11-.14.08-.27.16-.41.22-2.46,1.32-4.74-1.46-7.23-1.25-4.35-.21-8.79-.46-13.14-.57-7.11.03-14.13-.41-21,2.11,0,0-.07-12.6-.07-12.6h0Z"/>
        </g>
        <g id="_x3C_网格重复_x3E_-51" data-name="_x3C_网格重复_x3E_">
          <path class="cls-3" d="M84.1,9.6c3.51,1.3,7.01,1.69,10.52,1.85,7.88.33,15.77-.2,23.64-.69,2.49.19,4.75-2.62,7.22-1.33.14.06.28.14.41.22.03,0,.06.06.08.45.04.41.07,1.32.09,1.74.04,1.25.11,3.08.11,4.33-.03,1.29-.05,3.13-.1,4.41-.01.21-.03,1.09-.12,1.11-.14.08-.27.16-.41.22-2.46,1.32-4.74-1.46-7.23-1.25-4.35-.21-8.79-.46-13.14-.57-7.11.03-14.13-.41-21,2.11,0,0-.07-12.6-.07-12.6h0Z"/>
        </g>
        <g id="_x3C_网格重复_x3E_-52" data-name="_x3C_网格重复_x3E_">
          <path class="cls-3" d="M91.75,9.6c3.51,1.3,7.01,1.69,10.52,1.85,7.88.33,15.77-.2,23.64-.69,2.49.19,4.75-2.62,7.22-1.33.14.06.28.14.41.22.03,0,.06.06.08.45.04.41.07,1.32.09,1.74.04,1.25.11,3.08.11,4.33-.03,1.29-.05,3.13-.1,4.41-.01.21-.03,1.09-.12,1.11-.14.08-.27.16-.41.22-2.46,1.32-4.74-1.46-7.23-1.25-4.35-.21-8.79-.46-13.14-.57-7.11.03-14.13-.41-21,2.11,0,0-.07-12.6-.07-12.6h0Z"/>
        </g>
        <g id="_x3C_网格重复_x3E_-53" data-name="_x3C_网格重复_x3E_">
          <path class="cls-3" d="M99.39,9.6c3.51,1.3,7.01,1.69,10.52,1.85,7.88.33,15.77-.2,23.64-.69,2.49.19,4.75-2.62,7.22-1.33.14.06.28.14.41.22.03,0,.06.06.08.45.04.41.07,1.32.09,1.74.04,1.25.11,3.08.11,4.33-.03,1.29-.05,3.13-.1,4.41-.01.21-.03,1.09-.12,1.11-.14.08-.27.16-.41.22-2.46,1.32-4.74-1.46-7.23-1.25-4.35-.21-8.79-.46-13.14-.57-7.11.03-14.13-.41-21,2.11,0,0-.07-12.6-.07-12.6h0Z"/>
        </g>
        <g id="_x3C_网格重复_x3E_-54" data-name="_x3C_网格重复_x3E_">
          <path class="cls-3" d="M107.04,9.6c3.51,1.3,7.01,1.69,10.52,1.85,7.88.33,15.77-.2,23.64-.69,2.49.19,4.75-2.62,7.22-1.33.14.06.28.14.41.22.03,0,.06.06.08.45.04.41.07,1.32.09,1.74.04,1.25.11,3.08.11,4.33-.03,1.29-.05,3.13-.1,4.41-.01.21-.03,1.09-.12,1.11-.14.08-.27.16-.41.22-2.46,1.32-4.74-1.46-7.23-1.25-4.35-.21-8.79-.46-13.14-.57-7.11.03-14.13-.41-21,2.11,0,0-.07-12.6-.07-12.6h0Z"/>
        </g>
        <g id="_x3C_网格重复_x3E_-55" data-name="_x3C_网格重复_x3E_">
          <path class="cls-3" d="M114.68,9.6c3.51,1.3,7.01,1.69,10.52,1.85,7.88.33,15.77-.2,23.64-.69,2.49.19,4.75-2.62,7.22-1.33.14.06.28.14.41.22.03,0,.06.06.08.45.04.41.07,1.32.09,1.74.04,1.25.11,3.08.11,4.33-.03,1.29-.05,3.13-.1,4.41-.01.21-.03,1.09-.12,1.11-.14.08-.27.16-.41.22-2.46,1.32-4.74-1.46-7.23-1.25-4.35-.21-8.79-.46-13.14-.57-7.11.03-14.13-.41-21,2.11,0,0-.07-12.6-.07-12.6h0Z"/>
        </g>
        <g id="_x3C_网格重复_x3E_-56" data-name="_x3C_网格重复_x3E_">
          <path class="cls-3" d="M122.33,9.6c3.51,1.3,7.01,1.69,10.52,1.85,7.88.33,15.77-.2,23.64-.69,2.49.19,4.75-2.62,7.22-1.33.14.06.28.14.41.22.03,0,.06.06.08.45.04.41.07,1.32.09,1.74.04,1.25.11,3.08.11,4.33-.03,1.29-.05,3.13-.1,4.41-.01.21-.03,1.09-.12,1.11-.14.08-.27.16-.41.22-2.46,1.32-4.74-1.46-7.23-1.25-4.35-.21-8.79-.46-13.14-.57-7.11.03-14.13-.41-21,2.11,0,0-.07-12.6-.07-12.6h0Z"/>
        </g>
        <g id="_x3C_网格重复_x3E_-57" data-name="_x3C_网格重复_x3E_">
          <path class="cls-3" d="M129.98,9.6c3.51,1.3,7.01,1.69,10.52,1.85,7.88.33,15.77-.2,23.64-.69,2.49.19,4.75-2.62,7.22-1.33.14.06.28.14.41.22.03,0,.06.06.08.45.04.41.07,1.32.09,1.74.04,1.25.11,3.08.11,4.33-.03,1.29-.05,3.13-.1,4.41-.01.21-.03,1.09-.12,1.11-.14.08-.27.16-.41.22-2.46,1.32-4.74-1.46-7.23-1.25-4.35-.21-8.79-.46-13.14-.57-7.11.03-14.13-.41-21,2.11,0,0-.07-12.6-.07-12.6h0Z"/>
        </g>
        <g id="_x3C_网格重复_x3E_-58" data-name="_x3C_网格重复_x3E_">
          <path class="cls-3" d="M137.62,9.6c3.51,1.3,7.01,1.69,10.52,1.85,7.88.33,15.77-.2,23.64-.69,2.49.19,4.75-2.62,7.22-1.33.14.06.28.14.41.22.03,0,.06.06.08.45.04.41.07,1.32.09,1.74.04,1.25.11,3.08.11,4.33-.03,1.29-.05,3.13-.1,4.41-.01.21-.03,1.09-.12,1.11-.14.08-.27.16-.41.22-2.46,1.32-4.74-1.46-7.23-1.25-4.35-.21-8.79-.46-13.14-.57-7.11.03-14.13-.41-21,2.11,0,0-.07-12.6-.07-12.6h0Z"/>
        </g>
        <g id="_x3C_网格重复_x3E_-59" data-name="_x3C_网格重复_x3E_">
          <path class="cls-3" d="M145.27,9.6c3.51,1.3,7.01,1.69,10.52,1.85,7.88.33,15.77-.2,23.64-.69,2.49.19,4.75-2.62,7.22-1.33.14.06.28.14.41.22.03,0,.06.06.08.45.04.41.07,1.32.09,1.74.04,1.25.11,3.08.11,4.33-.03,1.29-.05,3.13-.1,4.41-.01.21-.03,1.09-.12,1.11-.14.08-.27.16-.41.22-2.46,1.32-4.74-1.46-7.23-1.25-4.35-.21-8.79-.46-13.14-.57-7.11.03-14.13-.41-21,2.11,0,0-.07-12.6-.07-12.6h0Z"/>
        </g>
        <g id="_x3C_网格重复_x3E_-60" data-name="_x3C_网格重复_x3E_">
          <path class="cls-3" d="M152.91,9.6c3.51,1.3,7.01,1.69,10.52,1.85,7.88.33,15.77-.2,23.64-.69,2.49.19,4.75-2.62,7.22-1.33.14.06.28.14.41.22.03,0,.06.06.08.45.04.41.07,1.32.09,1.74.04,1.25.11,3.08.11,4.33-.03,1.29-.05,3.13-.1,4.41-.01.21-.03,1.09-.12,1.11-.14.08-.27.16-.41.22-2.46,1.32-4.74-1.46-7.23-1.25-4.35-.21-8.79-.46-13.14-.57-7.11.03-14.13-.41-21,2.11,0,0-.07-12.6-.07-12.6h0Z"/>
        </g>
        <g id="_x3C_网格重复_x3E_-61" data-name="_x3C_网格重复_x3E_">
          <path class="cls-3" d="M160.56,9.6c3.51,1.3,7.01,1.69,10.52,1.85,7.88.33,15.77-.2,23.64-.69,2.49.19,4.75-2.62,7.22-1.33.14.06.28.14.41.22.03,0,.06.06.08.45.04.41.07,1.32.09,1.74.04,1.25.11,3.08.11,4.33-.03,1.29-.05,3.13-.1,4.41-.01.21-.03,1.09-.12,1.11-.14.08-.27.16-.41.22-2.46,1.32-4.74-1.46-7.23-1.25-4.35-.21-8.79-.46-13.14-.57-7.11.03-14.13-.41-21,2.11,0,0-.07-12.6-.07-12.6h0Z"/>
        </g>
        <g id="_x3C_网格重复_x3E_-62" data-name="_x3C_网格重复_x3E_">
          <path class="cls-3" d="M168.21,9.6c3.51,1.3,7.01,1.69,10.52,1.85,7.88.33,15.77-.2,23.64-.69,2.49.19,4.75-2.62,7.22-1.33.14.06.28.14.41.22.03,0,.06.06.08.45.04.41.07,1.32.09,1.74.04,1.25.11,3.08.11,4.33-.03,1.29-.05,3.13-.1,4.41-.01.21-.03,1.09-.12,1.11-.14.08-.27.16-.41.22-2.46,1.32-4.74-1.46-7.23-1.25-4.35-.21-8.79-.46-13.14-.57-7.11.03-14.13-.41-21,2.11,0,0-.07-12.6-.07-12.6h0Z"/>
        </g>
        <g id="_x3C_网格重复_x3E_-63" data-name="_x3C_网格重复_x3E_">
          <path class="cls-3" d="M175.85,9.6c3.51,1.3,7.01,1.69,10.52,1.85,7.88.33,15.77-.2,23.64-.69,2.49.19,4.75-2.62,7.22-1.33.14.06.28.14.41.22.03,0,.06.06.08.45.04.41.07,1.32.09,1.74.04,1.25.11,3.08.11,4.33-.03,1.29-.05,3.13-.1,4.41-.01.21-.03,1.09-.12,1.11-.14.08-.27.16-.41.22-2.46,1.32-4.74-1.46-7.23-1.25-4.35-.21-8.79-.46-13.14-.57-7.11.03-14.13-.41-21,2.11,0,0-.07-12.6-.07-12.6h0Z"/>
        </g>
        <g id="_x3C_网格重复_x3E_-64" data-name="_x3C_网格重复_x3E_">
          <path class="cls-3" d="M183.5,9.6c3.51,1.3,7.01,1.69,10.52,1.85,7.88.33,15.77-.2,23.64-.69,2.49.19,4.75-2.62,7.22-1.33.14.06.28.14.41.22.03,0,.06.06.08.45.04.41.07,1.32.09,1.74.04,1.25.11,3.08.11,4.33-.03,1.29-.05,3.13-.1,4.41-.01.21-.03,1.09-.12,1.11-.14.08-.27.16-.41.22-2.46,1.32-4.74-1.46-7.23-1.25-4.35-.21-8.79-.46-13.14-.57-7.11.03-14.13-.41-21,2.11,0,0-.07-12.6-.07-12.6h0Z"/>
        </g>
        <g id="_x3C_网格重复_x3E_-65" data-name="_x3C_网格重复_x3E_">
          <path class="cls-3" d="M191.14,9.6c3.51,1.3,7.01,1.69,10.52,1.85,7.88.33,15.77-.2,23.64-.69,2.49.19,4.75-2.62,7.22-1.33.14.06.28.14.41.22.03,0,.06.06.08.45.04.41.07,1.32.09,1.74.04,1.25.11,3.08.11,4.33-.03,1.29-.05,3.13-.1,4.41-.01.21-.03,1.09-.12,1.11-.14.08-.27.16-.41.22-2.46,1.32-4.74-1.46-7.23-1.25-4.35-.21-8.79-.46-13.14-.57-7.11.03-14.13-.41-21,2.11,0,0-.07-12.6-.07-12.6h0Z"/>
        </g>
        <g id="_x3C_网格重复_x3E_-66" data-name="_x3C_网格重复_x3E_">
          <path class="cls-3" d="M198.79,9.6c3.51,1.3,7.01,1.69,10.52,1.85,7.88.33,15.77-.2,23.64-.69,2.49.19,4.75-2.62,7.22-1.33.14.06.28.14.41.22.03,0,.06.06.08.45.04.41.07,1.32.09,1.74.04,1.25.11,3.08.11,4.33-.03,1.29-.05,3.13-.1,4.41-.01.21-.03,1.09-.12,1.11-.14.08-.27.16-.41.22-2.46,1.32-4.74-1.46-7.23-1.25-4.35-.21-8.79-.46-13.14-.57-7.11.03-14.13-.41-21,2.11,0,0-.07-12.6-.07-12.6h0Z"/>
        </g>
        <g id="_x3C_网格重复_x3E_-67" data-name="_x3C_网格重复_x3E_">
          <path class="cls-3" d="M206.44,9.6c3.51,1.3,7.01,1.69,10.52,1.85,7.88.33,15.77-.2,23.64-.69,2.49.19,4.75-2.62,7.22-1.33.14.06.28.14.41.22.03,0,.06.06.08.45.04.41.07,1.32.09,1.74.04,1.25.11,3.08.11,4.33-.03,1.29-.05,3.13-.1,4.41-.01.21-.03,1.09-.12,1.11-.14.08-.27.16-.41.22-2.46,1.32-4.74-1.46-7.23-1.25-4.35-.21-8.79-.46-13.14-.57-7.11.03-14.13-.41-21,2.11,0,0-.07-12.6-.07-12.6h0Z"/>
        </g>
        <g id="_x3C_网格重复_x3E_-68" data-name="_x3C_网格重复_x3E_">
          <path class="cls-3" d="M214.08,9.6c3.51,1.3,7.01,1.69,10.52,1.85,7.88.33,15.77-.2,23.64-.69,2.49.19,4.75-2.62,7.22-1.33.14.06.28.14.41.22.03,0,.06.06.08.45.04.41.07,1.32.09,1.74.04,1.25.11,3.08.11,4.33-.03,1.29-.05,3.13-.1,4.41-.01.21-.03,1.09-.12,1.11-.14.08-.27.16-.41.22-2.46,1.32-4.74-1.46-7.23-1.25-4.35-.21-8.79-.46-13.14-.57-7.11.03-14.13-.41-21,2.11,0,0-.07-12.6-.07-12.6h0Z"/>
        </g>
      </g>
    </g>
  </g>
</svg>